<svg width="32" height="32" viewBox="0 0 32 32" fill="none" xmlns="http://www.w3.org/2000/svg">
  <rect width="32" height="32" rx="8" fill="#4C9F50"/>
  <path d="M8 18C10.2091 18 12 16.2091 12 14C12 11.7909 10.2091 10 8 10C5.79086 10 4 11.7909 4 14C4 16.2091 5.79086 18 8 18Z" fill="white"/>
  <path d="M24 18C26.2091 18 28 16.2091 28 14C28 11.7909 26.2091 10 24 10C21.7909 10 20 11.7909 20 14C20 16.2091 21.7909 18 24 18Z" fill="white"/>
  <path d="M16 26C18.2091 26 20 24.2091 20 22C20 19.7909 18.2091 18 16 18C13.7909 18 12 19.7909 12 22C12 24.2091 13.7909 26 16 26Z" fill="white"/>
  <path d="M16 14C18.2091 14 20 12.2091 20 10C20 7.79086 18.2091 6 16 6C13.7909 6 12 7.79086 12 10C12 12.2091 13.7909 14 16 14Z" fill="white"/>
</svg>